{
  "accessors": [
    {
      "bufferView": 2,
      "componentType": 5126,
      "count": 4733,
      "max": [
        76.61072540283203,
        50.08555603027344,
        129.9952392578125
      ],
      "min": [
        -22.25267219543457,
        -55.065895080566406,
        36.3062744140625
      ],
      "type": "VEC3"
    },
    {
      "bufferView": 2,
      "byteOffset": 56796,
      "componentType": 5126,
      "count": 4733,
      "max": [
        0.9993042945861816,
        0.9993125200271606,
        1.0
      ],
      "min": [
        -0.9918249249458313,
        -0.99580317735672,
        -0.999545156955719
      ],
      "type": "VEC3"
    },
    {
      "bufferView": 1,
      "componentType": 5126,
      "count": 4733,
      "max": [
        0.49932557344436646,
        0.598810076713562
      ],
      "min": [
        0.1594754159450531,
        0.02821507304906845
      ],
      "type": "VEC2"
    },
    {
      "bufferView": 0,
      "componentType": 5125,
      "count": 16389,
      "type": "SCALAR"
    },
    {
      "bufferView": 2,
      "byteOffset": 113592,
      "componentType": 5126,
      "count": 1499,
      "max": [
        1633.2510986328125,
        1619.333740234375,
        604.6351318359375
      ],
      "min": [
        -1633.2510986328125,
        -1619.333740234375,
        11.6224365234375
      ],
      "type": "VEC3"
    },
    {
      "bufferView": 2,
      "byteOffset": 131580,
      "componentType": 5126,
      "count": 1499,
      "max": [
        0.9998582601547241,
        0.9902129769325256,
        0.9982821941375732
      ],
      "min": [
        -0.9998582601547241,
        -0.9902130365371704,
        -1.0
      ],
      "type": "VEC3"
    },
    {
      "bufferView": 1,
      "byteOffset": 37864,
      "componentType": 5126,
      "count": 1499,
      "max": [
        5.0,
        1.0
      ],
      "min": [
        0.0,
        0.02666061744093895
      ],
      "type": "VEC2"
    },
    {
      "bufferView": 0,
      "byteOffset": 65556,
      "componentType": 5125,
      "count": 2199,
      "type": "SCALAR"
    },
    {
      "bufferView": 2,
      "byteOffset": 149568,
      "componentType": 5126,
      "count": 8882,
      "max": [
        375.748046875,
        363.1474609375,
        105.971435546875
      ],
      "min": [
        -349.911376953125,
        -346.7953796386719,
        -19.5753173828125
      ],
      "type": "VEC3"
    },
    {
      "bufferView": 2,
      "byteOffset": 256152,
      "componentType": 5126,
      "count": 8882,
      "max": [
        0.9999512434005737,
        0.9983130097389221,
        0.997950553894043
      ],
      "min": [
        -0.9997283816337585,
        -0.9987303614616394,
        -0.9973914623260498
      ],
      "type": "VEC3"
    },
    {
      "bufferView": 1,
      "byteOffset": 49856,
      "componentType": 5126,
      "count": 8882,
      "max": [
        0.3636850118637085,
        0.44702234864234924
      ],
      "min": [
        0.23676139116287231,
        0.3201083838939667
      ],
      "type": "VEC2"
    },
    {
      "bufferView": 0,
      "byteOffset": 74352,
      "componentType": 5125,
      "count": 17424,
      "type": "SCALAR"
    },
    {
      "bufferView": 2,
      "byteOffset": 362736,
      "componentType": 5126,
      "count": 8706,
      "max": [
        376.124267578125,
        891.9485473632813,
        245.0325927734375
      ],
      "min": [
        -829.0609130859375,
        -348.0602722167969,
        -18.58935546875
      ],
      "type": "VEC3"
    },
    {
      "bufferView": 2,
      "byteOffset": 467208,
      "componentType": 5126,
      "count": 8706,
      "max": [
        0.9991536140441895,
        0.9983130097389221,
        1.0
      ],
      "min": [
        -0.9988905787467957,
        -0.9992001056671143,
        -1.0
      ],
      "type": "VEC3"
    },
    {
      "bufferView": 1,
      "byteOffset": 120912,
      "componentType": 5126,
      "count": 8706,
      "max": [
        0.6962230205535889,
        0.5955323576927185
      ],
      "min": [
        0.15821287035942078,
        0.026957744732499123
      ],
      "type": "VEC2"
    },
    {
      "bufferView": 0,
      "byteOffset": 144048,
      "componentType": 5125,
      "count": 17802,
      "type": "SCALAR"
    },
    {
      "bufferView": 2,
      "byteOffset": 571680,
      "componentType": 5126,
      "count": 14998,
      "max": [
        376.124267578125,
        1042.4923095703125,
        245.180908203125
      ],
      "min": [
        -834.3994140625,
        -348.0602722167969,
        -29.223388671875
      ],
      "type": "VEC3"
    },
    {
      "bufferView": 2,
      "byteOffset": 751656,
      "componentType": 5126,
      "count": 14998,
      "max": [
        0.9999512434005737,
        0.9997929930686951,
        1.0
      ],
      "min": [
        -0.9997893571853638,
        -0.9998831152915955,
        -1.0
      ],
      "type": "VEC3"
    },
    {
      "bufferView": 1,
      "byteOffset": 190560,
      "componentType": 5126,
      "count": 14998,
      "max": [
        1.0,
        1.0
      ],
      "min": [
        0.15821287035942078,
        0.02666061744093895
      ],
      "type": "VEC2"
    },
    {
      "bufferView": 0,
      "byteOffset": 215256,
      "componentType": 5125,
      "count": 40338,
      "type": "SCALAR"
    },
    {
      "bufferView": 2,
      "byteOffset": 931632,
      "componentType": 5126,
      "count": 30089,
      "max": [
        1600.063720703125,
        1576.009765625,
        413.7000732421875
      ],
      "min": [
        -1599.3704833984375,
        -1575.977294921875,
        -722.8327026367188
      ],
      "type": "VEC3"
    },
    {
      "bufferView": 2,
      "byteOffset": 1292700,
      "componentType": 5126,
      "count": 30089,
      "max": [
        0.9999608993530273,
        1.0,
        1.0
      ],
      "min": [
        -0.9999608397483826,
        -1.0,
        -1.0
      ],
      "type": "VEC3"
    },
    {
      "bufferView": 1,
      "byteOffset": 310544,
      "componentType": 5126,
      "count": 30089,
      "max": [
        5.0308451652526855,
        0.7014278769493103
      ],
      "min": [
        0.03084568679332733,
        0.028526857495307922
      ],
      "type": "VEC2"
    },
    {
      "bufferView": 0,
      "byteOffset": 376608,
      "componentType": 5125,
      "count": 76767,
      "type": "SCALAR"
    },
    {
      "bufferView": 2,
      "byteOffset": 1653768,
      "componentType": 5126,
      "count": 6300,
      "max": [
        233.20010375976563,
        1042.9127197265625,
        233.3258056640625
      ],
      "min": [
        -661.3221435546875,
        -104.09053802490234,
        35.5914306640625
      ],
      "type": "VEC3"
    },
    {
      "bufferView": 2,
      "byteOffset": 1729368,
      "componentType": 5126,
      "count": 6300,
      "max": [
        0.9909592866897583,
        1.0,
        1.0
      ],
      "min": [
        -0.9897364974021912,
        -1.0,
        -1.0
      ],
      "type": "VEC3"
    },
    {
      "bufferView": 1,
      "byteOffset": 551256,
      "componentType": 5126,
      "count": 6300,
      "max": [
        0.49934321641921997,
        0.5988459587097168
      ],
      "min": [
        0.15821287035942078,
        0.028526857495307922
      ],
      "type": "VEC2"
    },
    {
      "bufferView": 0,
      "byteOffset": 683676,
      "componentType": 5125,
      "count": 9453,
      "type": "SCALAR"
    }
  ],
  "asset": {
    "extras": {
      "author": "tzeshi (https://sketchfab.com/timvizesi)",
      "license": "SKETCHFAB Editorial (https://sketchfab.com/licenses)",
      "source": "https://sketchfab.com/3d-models/firewatch-fan-art-8609caf1cd8c452eb7b6d4ca4228fcd0",
      "title": "Firewatch Fan Art"
    },
    "generator": "Sketchfab-12.66.0",
    "version": "2.0"
  },
  "bufferViews": [
    {
      "buffer": 0,
      "byteLength": 721488,
      "name": "floatBufferViews",
      "target": 34963
    },
    {
      "buffer": 0,
      "byteLength": 601656,
      "byteOffset": 721488,
      "byteStride": 8,
      "name": "floatBufferViews",
      "target": 34962
    },
    {
      "buffer": 0,
      "byteLength": 1804968,
      "byteOffset": 1323144,
      "byteStride": 12,
      "name": "floatBufferViews",
      "target": 34962
    }
  ],
  "buffers": [
    {
      "byteLength": 3128112,
      "uri": "scene.bin"
    }
  ],
  "extensionsUsed": [
    "KHR_materials_unlit"
  ],
  "images": [
    {
      "uri": "textures/material_0_baseColor.png"
    },
    {
      "uri": "textures/material_0_emissive.png"
    }
  ],
  "materials": [
    {
      "alphaMode": "MASK",
      "doubleSided": true,
      "emissiveFactor": [
        1.0,
        1.0,
        1.0
      ],
      "emissiveTexture": {
        "index": 1
      },
      "extensions": {
        "KHR_materials_unlit": {}
      },
      "name": "material_0",
      "pbrMetallicRoughness": {
        "baseColorTexture": {
          "index": 0
        },
        "metallicFactor": 0.0
      }
    }
  ],
  "meshes": [
    {
      "name": "Object_0",
      "primitives": [
        {
          "attributes": {
            "NORMAL": 1,
            "POSITION": 0,
            "TEXCOORD_0": 2
          },
          "indices": 3,
          "material": 0,
          "mode": 4
        }
      ]
    },
    {
      "name": "Object_1",
      "primitives": [
        {
          "attributes": {
            "NORMAL": 5,
            "POSITION": 4,
            "TEXCOORD_0": 6
          },
          "indices": 7,
          "material": 0,
          "mode": 4
        }
      ]
    },
    {
      "name": "Object_2",
      "primitives": [
        {
          "attributes": {
            "NORMAL": 9,
            "POSITION": 8,
            "TEXCOORD_0": 10
          },
          "indices": 11,
          "material": 0,
          "mode": 4
        }
      ]
    },
    {
      "name": "Object_3",
      "primitives": [
        {
          "attributes": {
            "NORMAL": 13,
            "POSITION": 12,
            "TEXCOORD_0": 14
          },
          "indices": 15,
          "material": 0,
          "mode": 4
        }
      ]
    },
    {
      "name": "Object_4",
      "primitives": [
        {
          "attributes": {
            "NORMAL": 17,
            "POSITION": 16,
            "TEXCOORD_0": 18
          },
          "indices": 19,
          "material": 0,
          "mode": 4
        }
      ]
    },
    {
      "name": "Object_5",
      "primitives": [
        {
          "attributes": {
            "NORMAL": 21,
            "POSITION": 20,
            "TEXCOORD_0": 22
          },
          "indices": 23,
          "material": 0,
          "mode": 4
        }
      ]
    },
    {
      "name": "Object_6",
      "primitives": [
        {
          "attributes": {
            "NORMAL": 25,
            "POSITION": 24,
            "TEXCOORD_0": 26
          },
          "indices": 27,
          "material": 0,
          "mode": 4
        }
      ]
    }
  ],
  "nodes": [
    {
      "children": [
        1
      ],
      "matrix": [
        1.0,
        0.0,
        0.0,
        0.0,
        0.0,
        2.220446049250313e-16,
        -1.0,
        0.0,
        0.0,
        1.0,
        2.220446049250313e-16,
        0.0,
        0.0,
        0.0,
        0.0,
        1.0
      ],
      "name": "Sketchfab_model"
    },
    {
      "children": [
        2,
        3,
        4,
        5,
        6,
        7,
        8
      ],
      "name": "1f8b19e448f54932acdc0357191671f8.obj.cleaner.materialmerger.gles"
    },
    {
      "mesh": 0,
      "name": "Object_2"
    },
    {
      "mesh": 1,
      "name": "Object_3"
    },
    {
      "mesh": 2,
      "name": "Object_4"
    },
    {
      "mesh": 3,
      "name": "Object_5"
    },
    {
      "mesh": 4,
      "name": "Object_6"
    },
    {
      "mesh": 5,
      "name": "Object_7"
    },
    {
      "mesh": 6,
      "name": "Object_8"
    }
  ],
  "samplers": [
    {
      "magFilter": 9729,
      "minFilter": 9987,
      "wrapS": 10497,
      "wrapT": 10497
    }
  ],
  "scene": 0,
  "scenes": [
    {
      "name": "Sketchfab_Scene",
      "nodes": [
        0
      ]
    }
  ],
  "textures": [
    {
      "sampler": 0,
      "source": 0
    },
    {
      "sampler": 0,
      "source": 1
    }
  ]
}
